<svg xmlns="http://www.w3.org/2000/svg" viewBox="0 0 32 32" width="32" height="32">
  <defs>
    <linearGradient id="cfGradient" x1="0%" y1="0%" x2="100%" y2="100%">
      <stop offset="0%" style="stop-color:#f38020"/>
      <stop offset="100%" style="stop-color:#faad3f"/>
    </linearGradient>
  </defs>
  <!-- Cloud shape inspired by Cloudflare -->
  <path fill="url(#cfGradient)" d="M25.5 14.5c0-.2 0-.4-.1-.6C25 10.4 21.8 8 18 8c-2.8 0-5.3 1.4-6.8 3.5-.5-.2-1-.3-1.6-.3-2.5 0-4.6 2-4.6 4.5 0 .3 0 .6.1.9C3.3 17.3 2 19 2 21c0 2.8 2.2 5 5 5h17c2.8 0 5-2.2 5-5 0-2.5-1.8-4.5-4.2-4.9.1-.5.2-1 .2-1.6h.5z"/>
  <!-- .NET accent (simplified for favicon) -->
  <circle fill="#512bd4" cx="24" cy="22" r="4"/>
</svg>
